<mxfile host="app.diagrams.net" modified="2023-03-24T22:45:36.435Z" agent="Mozilla/5.0 (Macintosh; Intel Mac OS X 10_15_7) AppleWebKit/537.36 (KHTML, like Gecko) Chrome/111.0.0.0 Safari/537.36" version="21.1.1" etag="dDuKD28i1SGzlH21hXhz" type="github">
  <diagram name="Page-1" id="QtNnuPg7gD8mtztR6Whm">
    <mxGraphModel>
      <root>
        <mxCell id="0" />
        <mxCell id="1" parent="0" />
      </root>
    </mxGraphModel>
  </diagram>
</mxfile>
